<svg width="25" height="24" viewBox="0 0 25 24" fill="none" xmlns="http://www.w3.org/2000/svg">
<path d="M10.5468 5.91226C10.5468 5.54545 10.6925 5.19388 10.9518 4.9344C11.2111 4.6751 11.5628 4.52945 11.9294 4.52945C12.2963 4.52945 12.648 4.6751 12.9073 4.9344C13.1666 5.19389 13.3123 5.54545 13.3123 5.91226C13.3123 6.27889 13.1666 6.63065 12.9073 6.88993C12.648 7.14923 12.2963 7.29507 11.9294 7.29507C11.5628 7.29507 11.2111 7.14923 10.9518 6.88993C10.6925 6.63063 10.5468 6.27907 10.5468 5.91226ZM9.50868 10.8966C10.2769 10.5517 10.9045 10.6827 10.9045 11.6596V18.1853C10.9045 19.4889 12.3969 19.8097 13.5336 19.1068C14.1244 18.7248 14.6448 18.2435 15.0719 17.6846C15.1594 17.5676 15.156 17.4061 15.0638 17.2929C14.9717 17.1796 14.8143 17.1435 14.6821 17.205C13.9138 17.5501 13.2862 17.419 13.2862 16.4422V9.91645C13.2862 8.61306 11.7939 8.29201 10.6571 8.99492H10.6573C10.0664 9.3768 9.54589 9.85802 9.11879 10.4172C9.03137 10.5342 9.03472 10.6954 9.12698 10.8087C9.21906 10.922 9.37643 10.9581 9.50868 10.8966ZM0.09531 12C0.09531 8.81732 1.35965 5.76521 3.61004 3.51473C5.86043 1.26434 8.91292 0 12.0953 0C15.2777 0 18.3301 1.26434 20.5806 3.51473C22.831 5.76512 24.0953 8.81761 24.0953 12C24.0953 15.1824 22.831 18.2348 20.5806 20.4853C18.3302 22.7357 15.2777 24 12.0953 24C8.91377 23.9965 5.86386 22.731 3.61385 20.4814C1.36422 18.2315 0.0987863 15.1813 0.0952148 11.9999L0.09531 12ZM1.69541 12C1.69541 14.7582 2.79103 17.4034 4.74138 19.3538C6.69191 21.3042 9.3372 22.3998 12.0952 22.3998C14.8532 22.3998 17.4986 21.3042 19.4491 19.3538C21.3994 17.4033 22.495 14.758 22.495 12C22.495 9.24199 21.3994 6.59665 19.4491 4.64616C17.4985 2.69582 14.8532 1.6002 12.0952 1.6002C9.33797 1.60317 6.69424 2.69992 4.74471 4.64969C2.79494 6.59927 1.69817 9.24289 1.69522 12.0002L1.69541 12Z" fill="#A4ABB4"/>
</svg>
