<svg xmlns="http://www.w3.org/2000/svg" width="64" height="64" viewBox="0 0 64 64"><g transform="translate(2 2)"><g transform="translate(0 0)"><path d="M63,33A30,30,0,1,1,33,3,30,30,0,0,1,63,33Z" transform="translate(-3 -3)" fill="none" stroke="#323232" stroke-width="4"/><path d="M8,20.33a15.827,15.827,0,0,1,25.321,0" transform="translate(9.341 22.899)" fill="none" stroke="#323232" stroke-linecap="round" stroke-width="4"/><path d="M9,10.035V10" transform="translate(11 13.333)" fill="none" stroke="#323232" stroke-linecap="round" stroke-width="6"/><path d="M15,10.035V10" transform="translate(25 13.333)" fill="none" stroke="#323232" stroke-linecap="round" stroke-width="6"/></g><line x2="8.736" y2="0.063" transform="matrix(0.985, 0.174, -0.174, 0.985, 15.508, 16.13)" fill="none" stroke="#323232" stroke-linecap="round" stroke-width="4"/><line y1="0.063" x2="8.737" transform="matrix(-0.985, 0.174, -0.174, -0.985, 44.835, 16.192)" fill="none" stroke="#323232" stroke-linecap="round" stroke-width="4"/></g></svg>