<svg width="31" height="30" viewBox="0 0 31 30" fill="none" xmlns="http://www.w3.org/2000/svg">
<path d="M24.5528 1.09921C23.0872 -0.366403 20.7109 -0.366403 19.2453 1.09921L14.9238 5.42069C14.5532 3.73781 13.053 2.47863 11.2587 2.47863H3.75291C1.68025 2.47863 0 4.15886 0 6.23154V26.2421C0 27.5188 0.63752 28.6467 1.6116 29.3247C2.2202 29.7503 2.96092 30 3.75994 30H23.7755C25.8481 30 27.5284 28.3197 27.5284 26.2471V18.7413C27.5284 16.9924 26.332 15.5228 24.7132 15.1064L28.9828 10.8367C30.4484 9.37113 30.4484 6.99491 28.9828 5.5293L24.5528 1.09921ZM18.9668 14.9883H15.0117V11.0332L18.9668 14.9883ZM21.0143 2.86836C21.503 2.37983 22.2951 2.37983 22.7837 2.86836L27.2137 7.29845C27.7023 7.78698 27.7023 8.57904 27.2137 9.0676L22.7837 13.4977C22.2951 13.9862 21.503 13.9862 21.0143 13.4977L16.5844 9.0676C16.0958 8.57904 16.0958 7.78698 16.5844 7.29845L21.0143 2.86836ZM12.5097 6.23154V14.9883H2.50194V6.23154C2.50194 5.54066 3.06203 4.98057 3.75291 4.98057H11.2587C11.9496 4.98057 12.5097 5.54066 12.5097 6.23154ZM2.50897 26.2471V17.4903H12.5097V27.4931H3.75291C3.48728 27.4931 3.24097 27.4102 3.03841 27.2691C2.71809 27.0427 2.50897 26.6692 2.50897 26.2471ZM15.0117 17.4903H23.7755C24.4663 17.4903 25.0265 18.0504 25.0265 18.7413V26.2471C25.0265 26.9379 24.4663 27.4981 23.7755 27.4981H15.0117V17.4903Z" fill="#CCCCCC"/>
<path fill-rule="evenodd" clip-rule="evenodd" d="M14.7487 6.02012L14.6309 5.48522C14.2899 3.93693 12.9092 2.77863 11.2587 2.77863H3.75291C1.84594 2.77863 0.3 4.32455 0.3 6.23154V26.2421C0.3 27.4165 0.886028 28.4542 1.78299 29.0785C2.34282 29.47 3.02439 29.7 3.75994 29.7H23.7755C25.6824 29.7 27.2284 28.154 27.2284 26.2471V18.7413C27.2284 17.1326 26.1279 15.7801 24.6385 15.397L24.1294 15.266L28.7706 10.6246C30.1191 9.27616 30.1191 7.08989 28.7706 5.74143L24.3407 1.31134C22.9922 -0.0371186 20.8058 -0.0371082 19.4575 1.31134L14.7487 6.02012ZM19.6911 15.2883H14.7117V10.3089L19.6911 15.2883ZM28.9828 10.8367C30.4484 9.37113 30.4484 6.99491 28.9828 5.5293L24.5528 1.09921C23.0872 -0.366403 20.7109 -0.366403 19.2453 1.09921L14.9238 5.42069C14.8989 5.30728 14.8688 5.1958 14.8338 5.08649C14.3497 3.57382 12.9321 2.47863 11.2587 2.47863H3.75291C1.68025 2.47863 0 4.15886 0 6.23154V26.2421C0 27.5188 0.63752 28.6467 1.6116 29.3247C2.2202 29.7503 2.96092 30 3.75994 30H23.7755C25.8481 30 27.5284 28.3197 27.5284 26.2471V18.7413C27.5284 17.1115 26.4894 15.7244 25.0379 15.206C24.9318 15.1681 24.8235 15.1348 24.7132 15.1064L28.9828 10.8367ZM20.8022 2.6562C21.408 2.05055 22.39 2.05055 22.9958 2.6562L27.4258 7.0863C28.0316 7.69199 28.0316 8.67403 27.4258 9.27975L22.9958 13.7098C22.3901 14.3155 21.408 14.3155 20.8022 13.7098L16.3722 9.27972C15.7665 8.67402 15.7665 7.69201 16.3722 7.08632L20.8022 2.6562ZM27.2137 9.0676C27.7023 8.57904 27.7023 7.78698 27.2137 7.29845L22.7837 2.86836C22.2951 2.37983 21.503 2.37983 21.0143 2.86836L16.5844 7.29845C16.0958 7.78698 16.0958 8.57904 16.5844 9.0676L21.0143 13.4977C21.503 13.9862 22.2951 13.9862 22.7837 13.4977L27.2137 9.0676ZM12.8097 15.2883H2.20194V6.23154C2.20194 5.37497 2.89634 4.68057 3.75291 4.68057H11.2587C12.1153 4.68057 12.8097 5.37497 12.8097 6.23154V15.2883ZM2.20897 17.1903H12.8097V27.7931H3.75291C3.42397 27.7931 3.11814 27.6903 2.86693 27.5153L2.86524 27.5141C2.46872 27.2338 2.20897 26.7706 2.20897 26.2471V17.1903ZM14.7117 17.1903H23.7755C24.6319 17.1903 25.3265 17.8847 25.3265 18.7413V26.2471C25.3265 27.1036 24.632 27.7981 23.7755 27.7981H14.7117V17.1903ZM18.9668 14.9883L15.0117 11.0332V14.9883H18.9668ZM12.5097 6.23154C12.5097 5.54066 11.9496 4.98057 11.2587 4.98057H3.75291C3.06203 4.98057 2.50194 5.54066 2.50194 6.23154V14.9883H12.5097V6.23154ZM2.50897 26.2471C2.50897 26.6692 2.71809 27.0427 3.03841 27.2691C3.24097 27.4102 3.48728 27.4931 3.75291 27.4931H12.5097V17.4903H2.50897V26.2471ZM15.0117 17.4903V27.4981H23.7755C24.4663 27.4981 25.0265 26.9379 25.0265 26.2471V18.7413C25.0265 18.0504 24.4663 17.4903 23.7755 17.4903H15.0117Z" fill="white"/>
</svg>
