<svg width="26" height="30" viewBox="0 0 26 30" fill="none" xmlns="http://www.w3.org/2000/svg">
<path d="M19.705 0H8.99105C8.03341 0.0617313 7.13416 0.481907 6.4724 1.17685C5.81063 1.87178 5.4349 2.79049 5.42005 3.75L4.38805 3.775C3.44721 3.83697 2.56619 4.25818 1.92721 4.95151C1.28823 5.64484 0.94018 6.55725 0.955047 7.5V26.25C0.969904 27.2095 1.34563 28.1282 2.0074 28.8232C2.66916 29.5181 3.56841 29.9383 4.52605 30H17.919C18.8767 29.9383 19.7759 29.5181 20.4377 28.8232C21.0995 28.1282 21.4752 27.2095 21.49 26.25H22.383C23.3407 26.1883 24.2399 25.7681 24.9017 25.0732C25.5635 24.3782 25.9392 23.4595 25.954 22.5V7.523L19.705 0ZM17.919 28.125H4.52605C4.04834 28.0912 3.60048 27.8802 3.27027 27.5333C2.94006 27.1865 2.75132 26.7288 2.74105 26.25V7.5C2.73388 7.03327 2.90631 6.58162 3.22271 6.23843C3.5391 5.89523 3.97527 5.68672 4.44105 5.656L5.41905 5.625V22.5C5.4339 23.4595 5.80963 24.3782 6.4714 25.0732C7.13316 25.7681 8.03241 26.1883 8.99005 26.25H19.705C19.6948 26.729 19.5059 27.1868 19.1755 27.5337C18.845 27.8805 18.3969 28.0914 17.919 28.125ZM24.169 22.5C24.1588 22.979 23.9699 23.4368 23.6395 23.7837C23.309 24.1305 22.8609 24.3414 22.383 24.375H8.99105C8.51316 24.3414 8.06506 24.1305 7.73464 23.7837C7.40423 23.4368 7.21534 22.979 7.20505 22.5V3.75C7.21534 3.27105 7.40423 2.81322 7.73464 2.46634C8.06506 2.11946 8.51316 1.90856 8.99105 1.875H17.92C17.906 4.034 17.92 5.648 17.92 5.648C17.9306 6.60659 18.3056 7.52524 18.9688 8.21743C19.632 8.90963 20.5338 9.32349 21.491 9.375H24.17L24.169 22.5ZM21.491 7.5C20.54 7.5 19.705 5.686 19.705 4.713V1.9L24.169 7.5H21.491ZM19.705 13.142H11.669C11.4298 13.1555 11.2049 13.2601 11.0403 13.4343C10.8758 13.6084 10.7841 13.8389 10.7841 14.0785C10.7841 14.3181 10.8758 14.5486 11.0403 14.7227C11.2049 14.8969 11.4298 15.0015 11.669 15.015H19.705C19.9443 15.0015 20.1692 14.8969 20.3338 14.7227C20.4983 14.5486 20.59 14.3181 20.59 14.0785C20.59 13.8389 20.4983 13.6084 20.3338 13.4343C20.1692 13.2601 19.9443 13.1555 19.705 13.142ZM19.705 17.825H11.669C11.4298 17.8385 11.2049 17.9431 11.0403 18.1173C10.8758 18.2914 10.7841 18.5219 10.7841 18.7615C10.7841 19.0011 10.8758 19.2316 11.0403 19.4057C11.2049 19.5799 11.4298 19.6845 11.669 19.698H19.705C19.9443 19.6845 20.1692 19.5799 20.3338 19.4057C20.4983 19.2316 20.59 19.0011 20.59 18.7615C20.59 18.5219 20.4983 18.2914 20.3338 18.1173C20.1692 17.9431 19.9443 17.8385 19.705 17.825Z" fill="#CCCCCC"/>
</svg>
