<svg width="141" height="26" viewBox="0 0 141 26" fill="none" xmlns="http://www.w3.org/2000/svg">
<path fill-rule="evenodd" clip-rule="evenodd" d="M9.26966 12.4649C9.03764 12.9086 8.71845 13.295 8.3121 13.6229C7.90576 13.951 7.43203 14.2181 6.8901 14.4238C6.34857 14.63 5.8034 14.7683 5.25542 14.8388C4.70703 14.9096 4.17478 14.9035 3.65949 14.8195C3.14338 14.736 2.70435 14.5656 2.3436 14.308L2.75035 10.0812C3.12401 9.95263 3.59452 9.82064 4.16228 9.68549C4.72963 9.55054 5.31313 9.45382 5.91316 9.39604C6.5132 9.33803 7.08015 9.34486 7.61562 9.4154C8.1507 9.48614 8.57318 9.65656 8.88269 9.9269C9.05055 10.0812 9.1926 10.2484 9.30841 10.4286C9.42462 10.6089 9.49524 10.7954 9.52147 10.9884C9.58563 11.5288 9.50209 12.021 9.26966 12.4649ZM3.36895 3.46108C3.63971 3.29386 3.96576 3.1457 4.34588 3.0169C4.7264 2.88862 5.11661 2.79824 5.5165 2.74685C5.91599 2.69565 6.30619 2.68879 6.68712 2.72749C7.06724 2.76616 7.40297 2.87222 7.6931 3.04583C7.98323 3.21968 8.19912 3.47066 8.34116 3.79853C8.4828 4.12688 8.52154 4.5419 8.45697 5.04362C8.40573 5.44252 8.24714 5.78041 7.98324 6.05688C7.71893 6.3338 7.39611 6.56519 7.01599 6.75181C6.63547 6.93863 6.23235 7.0865 5.80704 7.19547C5.38092 7.30516 4.97134 7.38573 4.57831 7.43692C4.18488 7.48859 3.84309 7.52091 3.55296 7.5334C3.26283 7.54637 3.07236 7.55271 2.98197 7.55271L3.36895 3.46108ZM11.3591 9.73373C11.1529 9.28364 10.8757 8.88794 10.5274 8.54662C10.1792 8.20578 9.766 7.95823 9.28904 7.80373C9.49524 7.63647 9.69861 7.37276 9.89876 7.01233C10.0985 6.65238 10.2692 6.25962 10.4112 5.83503C10.5529 5.41019 10.6501 4.98265 10.7014 4.55147C10.7526 4.1205 10.7332 3.75053 10.6437 3.44149C10.4237 2.66972 10.0791 2.06489 9.60822 1.62733C9.13731 1.19001 8.58933 0.887592 7.96387 0.720123C7.338 0.553381 6.64838 0.517625 5.89379 0.614107C5.1392 0.710548 4.36847 0.90032 3.58201 1.18338C3.58201 1.11922 3.58847 1.05167 3.60138 0.980882C3.61389 0.91038 3.62034 0.836161 3.62034 0.758789C3.62034 0.565866 3.5239 0.39884 3.33021 0.257067C3.13693 0.115537 2.91458 0.0320642 2.66319 0.00608527C2.41139 -0.0193685 2.16645 0.0349737 1.92757 0.170161C1.68909 0.305308 1.52445 0.553381 1.43446 0.913046C1.33116 2.07127 1.22786 3.27451 1.12496 4.52234C1.02166 5.77063 0.9119 7.03168 0.796089 8.3057C0.679875 9.57943 0.563657 10.8437 0.447846 12.0981C0.331632 13.3528 0.21542 14.5589 0.0996094 15.7169C0.138348 16.0644 0.234787 16.3347 0.38974 16.5277C0.544289 16.7208 0.725066 16.8367 0.931266 16.8751C1.13747 16.9138 1.35376 16.878 1.57932 16.7688C1.80489 16.6598 2.00181 16.4696 2.16968 16.1995C2.68538 16.4826 3.26605 16.666 3.91088 16.7497C4.55571 16.8332 5.20982 16.8332 5.87483 16.7497C6.53862 16.666 7.19314 16.5085 7.83797 16.2767C8.4828 16.0452 9.06992 15.7556 9.59854 15.4084C10.1276 15.0609 10.5722 14.665 10.9338 14.2213C11.2945 13.7771 11.5334 13.2979 11.6492 12.7835C11.7655 12.2558 11.7977 11.7284 11.7461 11.2007C11.6944 10.6733 11.5653 10.1845 11.3591 9.73373Z" fill="#0D0C23"/>
<path fill-rule="evenodd" clip-rule="evenodd" d="M30.2344 19.9249C30.1638 20.3495 30.0633 20.7968 29.9346 21.2667C29.8054 21.7357 29.6541 22.164 29.4802 22.5503C29.3059 22.9361 29.1126 23.2476 28.8999 23.486C28.6869 23.724 28.4577 23.8238 28.2127 23.7854C28.0195 23.7591 27.8968 23.6371 27.8455 23.4185C27.7935 23.1995 27.7935 22.9292 27.8455 22.608C27.8968 22.286 27.9965 21.9224 28.145 21.5172C28.2934 21.1119 28.4742 20.7095 28.6869 20.3111C28.8999 19.912 29.1416 19.5294 29.4124 19.1625C29.6832 18.7961 29.9669 18.4903 30.2634 18.2459C30.328 18.323 30.3571 18.516 30.3506 18.825C30.3437 19.1338 30.3054 19.5007 30.2344 19.9249ZM36.7933 11.5485C36.6189 11.3555 36.4063 11.2463 36.1545 11.2204C35.9031 11.1946 35.6481 11.3362 35.3906 11.645C35.2227 11.9537 35.0097 12.2497 34.7518 12.5328C34.494 12.8161 34.2264 13.0732 33.9492 13.3049C33.6716 13.5363 33.4073 13.736 33.1559 13.9031C32.9045 14.0705 32.7076 14.1927 32.5659 14.2698C32.5143 13.8583 32.4848 13.4143 32.4788 12.938C32.4719 12.462 32.482 11.9797 32.5078 11.4907C32.5462 10.7958 32.6269 10.0947 32.7495 9.38681C32.8722 8.6792 33.0494 7.98427 33.2818 7.30207C33.2818 6.94212 33.1975 6.64928 33.03 6.424C32.8621 6.19899 32.6592 6.05722 32.4207 5.9994C32.1818 5.94163 31.9373 5.97371 31.6855 6.09589C31.4341 6.21831 31.2182 6.4404 31.0374 6.76168C30.8829 7.18652 30.7053 7.6625 30.5056 8.18996C30.3054 8.71762 30.0798 9.25486 29.8284 9.80163C29.5766 10.3489 29.2962 10.8795 28.9867 11.394C28.6772 11.9089 28.3386 12.3658 27.971 12.7644C27.6034 13.1633 27.2035 13.4755 26.7718 13.7006C26.3392 13.9258 25.8723 14.0255 25.3691 13.9998C25.1367 13.9354 24.9688 13.7618 24.8659 13.4785C24.7626 13.1957 24.7013 12.8416 24.6823 12.417C24.6629 11.9924 24.6823 11.5259 24.74 11.0176C24.7981 10.5095 24.8756 10.0044 24.9725 9.50264C25.0689 9.00068 25.1754 8.52466 25.2912 8.07437C25.4074 7.62408 25.5168 7.24429 25.6201 6.93554C25.7751 6.56258 25.7751 6.25014 25.6201 5.9994C25.4656 5.74842 25.2529 5.58144 24.9821 5.49744C24.7114 5.41397 24.4273 5.41736 24.1307 5.50726C23.8341 5.59736 23.6211 5.79667 23.4923 6.10542C23.2728 6.63337 23.0727 7.22494 22.8923 7.88116C22.7119 8.53742 22.5666 9.21639 22.4573 9.91746C22.3475 10.619 22.2858 11.3139 22.2733 12.0022C22.2725 12.047 22.2745 12.0896 22.2745 12.1342C21.9932 12.8822 21.7253 13.4476 21.4707 13.8259C21.1418 14.3151 20.7706 14.5275 20.3582 14.4628C20.177 14.3857 20.0583 14.2057 20.0002 13.9224C19.9417 13.6396 19.9228 13.2921 19.9417 12.88C19.9615 12.4687 20.0099 12.0022 20.087 11.4809C20.1649 10.9598 20.2609 10.4194 20.3771 9.85965C20.4933 9.29966 20.616 8.73722 20.7447 8.17085C20.8739 7.60473 20.9897 7.07068 21.0934 6.56872C21.0805 6.11843 20.9481 5.7744 20.6963 5.53615C20.4453 5.29838 20.0935 5.20509 19.6423 5.25628C19.3328 5.38504 19.1036 5.55255 18.9555 5.75824C18.807 5.96389 18.6876 6.22788 18.5976 6.54937C18.5455 6.71688 18.4685 7.05133 18.3652 7.55329C18.2619 8.05477 18.1299 8.63096 17.9685 9.28055C17.8075 9.93067 17.617 10.6092 17.3979 11.3168C17.1788 12.0245 16.9335 12.665 16.6631 13.2373C16.3919 13.8098 16.0954 14.2698 15.7729 14.6173C15.4505 14.9645 15.1023 15.1063 14.7282 15.0419C14.5216 15.0032 14.3897 14.7909 14.3315 14.405C14.2734 14.0189 14.2642 13.5431 14.3025 12.9768C14.3412 12.4106 14.4187 11.7896 14.5345 11.1143C14.6507 10.4387 14.7698 9.79868 14.8924 9.19364C15.0151 8.58906 15.1281 8.05477 15.2314 7.59176C15.3343 7.12846 15.4053 6.8197 15.4441 6.66544C15.4441 6.29228 15.3597 5.99331 15.1927 5.76778C15.0248 5.54298 14.8218 5.4012 14.5829 5.34318C14.3441 5.28541 14.0991 5.31749 13.8481 5.43966C13.5963 5.56209 13.3804 5.78418 13.1997 6.10542C13.1351 6.45289 13.0512 6.85522 12.9483 7.31189C12.845 7.76852 12.7453 8.2382 12.6485 8.72081C12.5516 9.20342 12.4612 9.67626 12.3777 10.1395C12.2938 10.6028 12.2324 11.0081 12.1937 11.3555C12.1679 11.6256 12.1388 11.9572 12.1069 12.3494C12.0742 12.7422 12.0581 13.157 12.0581 13.5943C12.0581 14.0321 12.0904 14.4662 12.1554 14.8972C12.2195 15.3284 12.3357 15.7241 12.5032 16.0841C12.6707 16.4445 12.9063 16.7403 13.2098 16.9719C13.5124 17.2035 13.8961 17.3321 14.3606 17.3581C14.8376 17.3835 15.2536 17.3485 15.6087 17.2518C15.963 17.1553 16.2854 17.004 16.5759 16.798C16.8661 16.5926 17.1304 16.348 17.3693 16.0647C17.6073 15.7819 17.843 15.4731 18.075 15.1384C18.2946 15.6276 18.5782 16.0069 18.9265 16.2772C19.2747 16.5473 19.6423 16.7084 20.0293 16.7596C20.4159 16.8108 20.8097 16.7567 21.2096 16.5955C21.6091 16.4349 21.9702 16.1614 22.2927 15.7753C22.5053 15.5385 22.7055 15.2694 22.8935 14.9719C22.9734 15.1112 23.0581 15.2456 23.1538 15.3698C23.4697 15.7819 23.8987 16.0647 24.4406 16.2192C25.0209 16.3737 25.5878 16.3997 26.1427 16.2966C26.6971 16.1937 27.2261 16.0069 27.7289 15.7368C28.2321 15.4665 28.6994 15.1418 29.132 14.762C29.5637 14.3825 29.941 13.987 30.2634 13.575C30.2505 13.871 30.2441 14.1511 30.2441 14.4146C30.2441 14.6785 30.2376 14.9645 30.2251 15.2735C29.5799 15.7241 28.9706 16.2645 28.3967 16.8948C27.8225 17.5251 27.3193 18.1974 26.8876 18.9116C26.4554 19.6255 26.1168 20.3495 25.8723 21.0828C25.627 21.8166 25.5075 22.5018 25.514 23.1389C25.5204 23.7757 25.6718 24.332 25.9687 24.808C26.2649 25.2843 26.7488 25.6249 27.4194 25.831C28.1163 26.05 28.7284 26.056 29.2579 25.8504C29.7865 25.6443 30.2473 25.3033 30.6407 24.8274C31.0342 24.3514 31.3566 23.7757 31.6084 23.1001C31.8598 22.4246 32.0595 21.72 32.208 20.9867C32.3561 20.2534 32.4497 19.5322 32.4885 18.825C32.5272 18.1171 32.5272 17.4863 32.4885 16.9332C33.5978 16.4702 34.5069 15.8847 35.2163 15.1768C35.9257 14.4697 36.5124 13.7231 36.9769 12.938C37.1185 12.7451 37.1669 12.5135 37.1221 12.2434C37.0765 11.9731 36.9672 11.7414 36.7933 11.5485Z" fill="#0D0C23"/>
<path fill-rule="evenodd" clip-rule="evenodd" d="M61.2001 10.3138C61.2389 10.0181 61.297 9.70586 61.374 9.37775C61.4515 9.04964 61.5484 8.73106 61.6646 8.4223C61.7804 8.11355 61.916 7.84665 62.0709 7.62136C62.2255 7.39632 62.3901 7.23548 62.564 7.13875C62.7384 7.04251 62.9151 7.05205 63.0963 7.16764C63.2896 7.28372 63.4086 7.52807 63.4542 7.90099C63.499 8.27463 63.4542 8.67329 63.3186 9.09788C63.183 9.52271 62.9413 9.92133 62.5931 10.2945C62.2448 10.6679 61.7739 10.912 61.1807 11.0279C61.1549 10.8482 61.1614 10.6099 61.2001 10.3138ZM67.9034 11.105C67.6908 11.0411 67.4878 11.0345 67.2941 11.0859C67.1008 11.1373 66.9782 11.2725 66.9269 11.4914C66.8232 11.903 66.6586 12.3244 66.433 12.7554C66.2074 13.1866 65.9302 13.595 65.6017 13.9812C65.2729 14.367 64.9016 14.7082 64.4892 15.004C64.076 15.3 63.6443 15.5123 63.1927 15.6408C62.7412 15.7826 62.3671 15.7985 62.0709 15.6891C61.7739 15.5801 61.5387 15.3933 61.3648 15.1296C61.1904 14.8659 61.0645 14.5473 60.9875 14.1741C60.91 13.8009 60.8648 13.415 60.8519 13.0159C61.5871 13.0676 62.2416 12.9359 62.8158 12.6202C63.3892 12.3053 63.8763 11.8868 64.2762 11.3658C64.6757 10.8447 64.9791 10.2593 65.1853 9.60938C65.3915 8.95978 65.5077 8.3131 65.5336 7.6696C65.5465 7.06477 65.4565 6.55352 65.2628 6.13531C65.0695 5.7173 64.808 5.3919 64.4792 5.16051C64.1507 4.92888 63.773 4.7937 63.3477 4.75527C62.9224 4.71657 62.4898 4.77458 62.0512 4.92888C61.5221 5.10908 61.0742 5.40168 60.7066 5.8072C60.339 6.21244 60.0327 6.68232 59.7878 7.21612C59.5429 7.75016 59.3492 8.32582 59.2075 8.94338C59.0655 9.56114 58.9622 10.1692 58.898 10.7676C58.8399 11.3046 58.8088 11.818 58.7979 12.3137C58.7701 12.3766 58.7435 12.437 58.714 12.5044C58.5139 12.9616 58.2814 13.4086 58.0175 13.846C57.7532 14.2836 57.4595 14.6503 57.1375 14.9461C56.815 15.2422 56.4797 15.345 56.1315 15.2549C55.9249 15.2037 55.8123 14.9652 55.7929 14.5409C55.7735 14.1161 55.7957 13.5886 55.8603 12.9581C55.9249 12.3278 55.9991 11.6454 56.083 10.912C56.1666 10.1787 56.2085 9.47766 56.2085 8.80843C56.2085 8.22934 56.0988 7.67304 55.8797 7.13875C55.6602 6.60519 55.3603 6.16101 54.9802 5.8072C54.5997 5.45311 54.1578 5.21829 53.655 5.10274C53.1519 4.98666 52.6103 5.06403 52.0301 5.33412C51.4494 5.60446 50.9882 5.98396 50.6468 6.47295C50.3046 6.96219 49.9919 7.47664 49.7082 8.01706C49.6049 7.6052 49.4536 7.22275 49.2534 6.86866C49.0537 6.51485 48.8087 6.20605 48.5186 5.9421C48.2281 5.67864 47.902 5.4727 47.5417 5.32455C47.1805 5.17691 46.7996 5.10274 46.3997 5.10274C46.0131 5.10274 45.6552 5.17691 45.3263 5.32455C44.9975 5.4727 44.6976 5.66223 44.4265 5.89386C44.1557 6.12573 43.9108 6.38605 43.6913 6.67569C43.4721 6.96514 43.2785 7.25164 43.111 7.53446C43.0848 7.19996 43.0561 6.90736 43.0242 6.6561C42.9915 6.4054 42.9334 6.19308 42.8499 6.01947C42.766 5.84562 42.6469 5.71391 42.492 5.62377C42.337 5.53391 42.1179 5.48862 41.8342 5.48862C41.6922 5.48862 41.5502 5.51751 41.4085 5.57529C41.2665 5.63335 41.1406 5.71391 41.0312 5.81673C40.9215 5.92008 40.8379 6.04517 40.7798 6.19309C40.7217 6.341 40.706 6.51166 40.7314 6.70458C40.7443 6.84636 40.7798 7.01657 40.8379 7.21612C40.8957 7.41567 40.9505 7.67647 41.0022 7.99771C41.0538 8.31948 41.0958 8.7088 41.1281 9.16547C41.1604 9.62239 41.1696 10.1821 41.1571 10.8447C41.1438 11.5076 41.0958 12.2825 41.0119 13.1704C40.9279 14.0583 40.7956 15.0877 40.6152 16.2584C40.5894 16.5287 40.6927 16.7476 40.9251 16.9148C41.1571 17.0818 41.4214 17.1783 41.718 17.2042C42.0146 17.23 42.2955 17.1783 42.5598 17.05C42.8241 16.9209 42.9758 16.6959 43.0141 16.3744C43.0529 15.7696 43.1271 15.1264 43.2369 14.4442C43.3462 13.7625 43.4818 13.0869 43.6432 12.4177C43.8042 11.7487 43.9878 11.1119 44.1944 10.5068C44.4006 9.90201 44.6298 9.36821 44.8812 8.90492C45.133 8.44166 45.3941 8.07189 45.6649 7.79522C45.9357 7.51854 46.2193 7.38016 46.5163 7.38016C46.8771 7.38016 47.1575 7.54399 47.3577 7.8721C47.5574 8.20045 47.6991 8.6221 47.7834 9.1363C47.8669 9.65128 47.9057 10.2145 47.8996 10.8254C47.8927 11.4366 47.8669 12.0252 47.8221 12.5913C47.7769 13.1577 47.7253 13.6626 47.6672 14.1065C47.6091 14.5505 47.5671 14.8563 47.5417 15.0233C47.5417 15.3193 47.6543 15.5539 47.8798 15.7278C48.1054 15.9013 48.3568 16.0044 48.6344 16.0365C48.912 16.0688 49.1727 16.0172 49.4181 15.882C49.663 15.7468 49.805 15.5189 49.8438 15.1969C49.9725 14.2706 50.15 13.3411 50.3756 12.4082C50.6012 11.4753 50.8594 10.639 51.1496 9.89907C51.4397 9.15909 51.7621 8.5543 52.1168 8.08466C52.4715 7.61526 52.8488 7.38016 53.2487 7.38016C53.4549 7.38016 53.6131 7.52193 53.7224 7.80475C53.8322 8.08781 53.8871 8.47374 53.8871 8.96273C53.8871 9.32316 53.858 9.69313 53.8003 10.0727C53.7418 10.4522 53.6744 10.8447 53.5969 11.25C53.5195 11.6555 53.4517 12.0703 53.3936 12.4949C53.3359 12.9197 53.3068 13.3634 53.3068 13.8267C53.3068 14.1484 53.3391 14.5215 53.4037 14.9461C53.4678 15.3705 53.5901 15.7731 53.7709 16.1523C53.9516 16.5321 54.1998 16.8536 54.5162 17.1173C54.8321 17.381 55.2348 17.513 55.7247 17.513C56.4603 17.513 57.1112 17.3553 57.679 17.0402C58.2463 16.7251 58.7334 16.3134 59.1397 15.8051C59.1607 15.7784 59.1801 15.75 59.2007 15.7236C59.2317 15.7988 59.2592 15.8783 59.2943 15.9498C59.5715 16.5159 59.9488 16.9533 60.4262 17.2623C60.9031 17.5711 61.4644 17.7415 62.1097 17.7738C62.7541 17.8056 63.457 17.6867 64.2185 17.4166C64.7854 17.2106 65.2789 16.9533 65.6982 16.6445C66.1171 16.3357 66.4943 15.9594 66.8297 15.5155C67.1654 15.0715 67.4713 14.56 67.7489 13.9812C68.0265 13.4018 68.3066 12.7395 68.5902 11.9929C68.6419 11.7874 68.5935 11.604 68.4454 11.4429C68.2969 11.2823 68.1165 11.1696 67.9034 11.105Z" fill="#0D0C23"/>
<path fill-rule="evenodd" clip-rule="evenodd" d="M78.4166 8.95245C78.3521 9.33223 78.2653 9.75068 78.1555 10.2071C78.0458 10.664 77.9074 11.1369 77.7395 11.6259C77.572 12.1148 77.3654 12.5556 77.1205 12.9478C76.8756 13.3406 76.5947 13.6523 76.2792 13.884C75.9628 14.1156 75.5988 14.2121 75.186 14.1734C74.9794 14.1479 74.8212 14.0064 74.7119 13.7488C74.6021 13.4917 74.5444 13.1633 74.5375 12.7644C74.5311 12.3658 74.5666 11.9282 74.6441 11.452C74.7216 10.9762 74.8406 10.5095 75.0024 10.0526C75.1634 9.59618 75.3599 9.17454 75.592 8.78837C75.8244 8.40248 76.0919 8.10326 76.395 7.89099C76.698 7.67867 77.0305 7.57928 77.3913 7.59176C77.7524 7.60473 78.1394 7.78469 78.5522 8.13215C78.526 8.29966 78.4812 8.57314 78.4166 8.95245ZM85.2943 10.429C85.0941 10.3261 84.8879 10.3038 84.6753 10.3616C84.4626 10.4194 84.3109 10.6158 84.2209 10.9503C84.1692 11.3107 84.053 11.7351 83.8726 12.224C83.6919 12.713 83.4691 13.1766 83.2052 13.6136C82.9405 14.0512 82.6375 14.4148 82.2957 14.7042C81.9539 14.9939 81.5895 15.1259 81.2029 15.0997C80.8801 15.0742 80.6541 14.9102 80.5258 14.6078C80.3963 14.3054 80.3289 13.9261 80.3224 13.4689C80.3156 13.0125 80.3612 12.4978 80.4576 11.9251C80.5545 11.3526 80.6707 10.7833 80.8059 10.2166C80.9415 9.65077 81.0803 9.10695 81.2223 8.58587C81.3639 8.06484 81.4798 7.62408 81.5706 7.26389C81.6735 6.94213 81.6412 6.66888 81.4737 6.44336C81.3058 6.21856 81.0964 6.05743 80.845 5.96099C80.5932 5.86451 80.3382 5.83877 80.0803 5.88382C79.8225 5.92891 79.655 6.06725 79.5775 6.29863C78.8165 5.64241 78.0845 5.28857 77.382 5.23717C76.6786 5.18574 76.0306 5.34024 75.4374 5.70043C74.8438 6.06062 74.3184 6.58169 73.8608 7.26389C73.4028 7.94605 73.032 8.68898 72.7479 9.49312C72.4642 10.2972 72.2871 11.1177 72.2161 11.954C72.1451 12.7904 72.1999 13.5529 72.3807 14.2412C72.5615 14.9295 72.8803 15.4927 73.3383 15.9298C73.7959 16.3673 74.4185 16.5863 75.2054 16.5863C75.5536 16.5863 75.8889 16.5155 76.2114 16.3739C76.5334 16.2322 76.8304 16.0649 77.1011 15.872C77.3719 15.679 77.6104 15.4763 77.8174 15.264C78.0232 15.0517 78.1846 14.8749 78.3008 14.7331C78.3908 15.1964 78.5393 15.5892 78.7459 15.9107C78.9517 16.2322 79.1873 16.4964 79.4517 16.7018C79.716 16.9075 79.9936 17.0588 80.2837 17.1555C80.5738 17.252 80.8547 17.3003 81.1251 17.3003C81.7316 17.3003 82.2985 17.0943 82.8279 16.6825C83.3565 16.2711 83.8307 15.7657 84.2499 15.1675C84.6688 14.5691 85.0142 13.9388 85.2846 13.2759C85.5557 12.6134 85.7361 12.0247 85.8265 11.5098C85.9169 11.3168 85.9003 11.1143 85.7781 10.902C85.6554 10.6897 85.4944 10.5323 85.2943 10.429Z" fill="#0D0C23"/>
<path fill-rule="evenodd" clip-rule="evenodd" d="M120.119 21.0837C120.009 21.5208 119.838 21.8913 119.606 22.1935C119.374 22.4957 119.084 22.6533 118.735 22.6666C118.516 22.6792 118.349 22.5632 118.232 22.3192C118.116 22.0743 118.036 21.7592 117.991 21.3734C117.945 20.9871 117.926 20.556 117.932 20.0801C117.939 19.6041 117.958 19.1342 117.991 18.6711C118.022 18.208 118.062 17.7766 118.107 17.378C118.152 16.9788 118.187 16.6706 118.213 16.4517C118.652 16.503 119.016 16.6926 119.306 17.0209C119.596 17.349 119.819 17.7382 119.973 18.1887C120.128 18.639 120.218 19.1249 120.245 19.6457C120.27 20.1669 120.228 20.6461 120.119 21.0837ZM113.115 21.0837C113.006 21.5208 112.835 21.8913 112.603 22.1935C112.371 22.4957 112.08 22.6533 111.732 22.6666C111.513 22.6792 111.345 22.5632 111.229 22.3192C111.113 22.0743 111.032 21.7592 110.987 21.3734C110.942 20.9871 110.922 20.556 110.929 20.0801C110.935 19.6041 110.955 19.1342 110.987 18.6711C111.019 18.208 111.058 17.7766 111.103 17.378C111.148 16.9788 111.184 16.6706 111.21 16.4517C111.648 16.503 112.013 16.6926 112.303 17.0209C112.593 17.349 112.815 17.7382 112.97 18.1887C113.125 18.639 113.215 19.1249 113.241 19.6457C113.267 20.1669 113.225 20.6461 113.115 21.0837ZM105.928 10.121C105.915 10.4295 105.886 10.703 105.841 10.941C105.796 11.1795 105.735 11.3304 105.657 11.3948C105.515 11.3174 105.341 11.1183 105.135 10.7963C104.929 10.4748 104.768 10.111 104.651 9.70569C104.535 9.30045 104.499 8.90184 104.545 8.50909C104.59 8.11682 104.793 7.81145 105.154 7.59231C105.296 7.51518 105.418 7.54407 105.522 7.67925C105.625 7.8144 105.709 8.01052 105.774 8.26788C105.838 8.52549 105.882 8.82128 105.909 9.15577C105.935 9.49047 105.941 9.81199 105.928 10.121ZM104.216 13.9715C104.016 14.1835 103.793 14.3669 103.549 14.5214C103.303 14.6759 103.052 14.7917 102.794 14.8689C102.536 14.9463 102.304 14.9653 102.097 14.9267C101.517 14.8111 101.072 14.5598 100.763 14.174C100.453 13.788 100.256 13.3345 100.173 12.8135C100.089 12.2922 100.098 11.7356 100.202 11.1438C100.305 10.552 100.479 10.002 100.724 9.49366C100.969 8.98532 101.266 8.54775 101.614 8.18122C101.962 7.8144 102.342 7.58621 102.755 7.49583C102.6 8.15205 102.549 8.83106 102.6 9.53213C102.652 10.2334 102.82 10.8928 103.103 11.5103C103.284 11.884 103.5 12.2246 103.751 12.5334C104.003 12.8424 104.31 13.1061 104.671 13.3248C104.567 13.5437 104.416 13.7591 104.216 13.9715ZM125.623 10.314C125.662 10.0182 125.719 9.7057 125.797 9.37759C125.874 9.04972 125.971 8.73118 126.087 8.42238C126.203 8.11338 126.339 7.84648 126.494 7.62144C126.649 7.39644 126.812 7.23531 126.987 7.13883C127.161 7.04234 127.338 7.05192 127.519 7.16772C127.712 7.28379 127.831 7.52815 127.877 7.90107C127.922 8.27451 127.876 8.67312 127.741 9.09796C127.606 9.52255 127.364 9.92144 127.016 10.2944C126.668 10.668 126.197 10.9122 125.603 11.028C125.578 10.848 125.584 10.61 125.623 10.314ZM133.42 10.314C133.458 10.0182 133.516 9.7057 133.594 9.37759C133.671 9.04972 133.768 8.73118 133.884 8.42238C134 8.11338 134.135 7.84648 134.29 7.62144C134.445 7.39644 134.61 7.23531 134.784 7.13883C134.958 7.04234 135.135 7.05192 135.315 7.16772C135.509 7.28379 135.628 7.52815 135.673 7.90107C135.719 8.27451 135.673 8.67312 135.538 9.09796C135.403 9.52255 135.161 9.92144 134.813 10.2944C134.464 10.668 133.994 10.9122 133.4 11.028C133.375 10.848 133.381 10.61 133.42 10.314ZM140.665 11.443C140.516 11.2824 140.336 11.1697 140.123 11.1051C139.91 11.0409 139.707 11.0346 139.514 11.086C139.32 11.1374 139.197 11.2726 139.146 11.4913C139.043 11.9031 138.879 12.3245 138.653 12.7552C138.427 13.1867 138.15 13.5951 137.821 13.981C137.492 14.3669 137.121 14.7082 136.709 15.004C136.296 15.3001 135.864 15.5124 135.413 15.6407C134.961 15.7827 134.587 15.7986 134.29 15.6891C133.993 15.5799 133.758 15.3933 133.584 15.1296C133.41 14.8657 133.285 14.5474 133.207 14.174C133.13 13.801 133.084 13.4151 133.071 13.016C133.807 13.0676 134.461 12.9359 135.035 12.6203C135.609 12.3052 136.096 11.8867 136.496 11.3656C136.896 10.8448 137.199 10.2593 137.405 9.6095C137.611 8.95962 137.727 8.31317 137.754 7.66968C137.766 7.06489 137.676 6.55335 137.482 6.13514C137.289 5.71718 137.028 5.39198 136.699 5.16059C136.37 4.92872 135.993 4.79377 135.567 4.75511C135.142 4.7164 134.709 4.7747 134.271 4.92872C133.742 5.10915 133.294 5.40179 132.927 5.80703C132.559 6.21251 132.252 6.6824 132.007 7.21596C131.762 7.75024 131.569 8.32566 131.427 8.94346C131.285 9.56101 131.182 10.1692 131.118 10.7674C131.055 11.348 131.021 11.9036 131.013 12.4354C130.964 12.5414 130.912 12.648 130.856 12.7552C130.63 13.1867 130.353 13.5951 130.024 13.981C129.696 14.3669 129.324 14.7082 128.912 15.004C128.499 15.3001 128.067 15.5124 127.616 15.6407C127.164 15.7827 126.79 15.7986 126.494 15.6891C126.197 15.5799 125.961 15.3933 125.787 15.1296C125.614 14.8657 125.488 14.5474 125.41 14.174C125.333 13.801 125.288 13.4151 125.275 13.016C126.01 13.0676 126.664 12.9359 127.239 12.6203C127.812 12.3052 128.299 11.8867 128.699 11.3656C129.099 10.8448 129.402 10.2593 129.608 9.6095C129.814 8.95962 129.931 8.31317 129.956 7.66968C129.969 7.06489 129.879 6.55335 129.686 6.13514C129.492 5.71718 129.231 5.39198 128.902 5.16059C128.573 4.92872 128.196 4.79377 127.77 4.75511C127.345 4.7164 126.912 4.7747 126.474 4.92872C125.945 5.10915 125.497 5.40179 125.13 5.80703C124.762 6.21251 124.455 6.6824 124.21 7.21596C123.966 7.75024 123.772 8.32566 123.63 8.94346C123.488 9.56101 123.385 10.1692 123.321 10.7674C123.284 11.1048 123.26 11.432 123.242 11.7532C123.117 11.859 122.995 11.9655 122.866 12.0701C122.421 12.4305 121.953 12.7552 121.463 13.0449C120.973 13.3345 120.463 13.5726 119.935 13.7591C119.406 13.9457 118.864 14.0584 118.31 14.0968L119.509 1.281C119.587 1.01066 119.548 0.772932 119.393 0.567C119.239 0.361067 119.039 0.219536 118.794 0.142408C118.549 0.0650363 118.287 0.0716213 118.01 0.161517C117.732 0.251858 117.504 0.457791 117.323 0.779033C117.233 1.26827 117.139 1.93722 117.043 2.7864C116.946 3.63559 116.849 4.56214 116.753 5.56583C116.656 6.56951 116.559 7.60528 116.462 8.67312C116.366 9.74145 116.282 10.7385 116.211 11.6649C116.207 11.706 116.205 11.7432 116.202 11.7838C116.089 11.8794 115.979 11.9756 115.862 12.0701C115.418 12.4305 114.95 12.7552 114.46 13.0449C113.969 13.3345 113.46 13.5726 112.932 13.7591C112.403 13.9457 111.861 14.0584 111.306 14.0968L112.506 1.281C112.583 1.01066 112.545 0.772932 112.39 0.567C112.235 0.361067 112.035 0.219536 111.79 0.142408C111.545 0.0650363 111.284 0.0716213 111.006 0.161517C110.729 0.251858 110.5 0.457791 110.32 0.779033C110.229 1.26827 110.136 1.93722 110.04 2.7864C109.942 3.63559 109.846 4.56214 109.749 5.56583C109.652 6.56951 109.556 7.60528 109.459 8.67312C109.362 9.74145 109.278 10.7385 109.208 11.6649C109.206 11.6834 109.205 11.7003 109.203 11.719C109.001 11.8127 108.78 11.895 108.54 11.9641C108.295 12.0351 108.018 12.0769 107.708 12.0897C107.76 11.8578 107.801 11.6005 107.834 11.3174C107.866 11.0346 107.892 10.7386 107.911 10.4295C107.931 10.121 107.937 9.81199 107.931 9.5032C107.924 9.1942 107.908 8.91138 107.882 8.65377C107.817 8.1009 107.698 7.57639 107.524 7.08081C107.35 6.58568 107.115 6.1709 106.818 5.83592C106.521 5.50142 106.151 5.27618 105.705 5.16059C105.261 5.04475 104.741 5.08322 104.149 5.27618C103.271 5.16059 102.481 5.24115 101.778 5.51759C101.075 5.79455 100.466 6.19635 99.9499 6.72377C99.4342 7.25171 99.0117 7.87218 98.6828 8.58646C98.354 9.30045 98.1344 10.0341 98.0251 10.7865C97.9787 11.1056 97.9561 11.4232 97.9492 11.74C97.7495 12.148 97.5308 12.5045 97.2899 12.8037C96.9481 13.2283 96.5934 13.5758 96.2258 13.8458C95.8582 14.1161 95.4938 14.3221 95.133 14.4636C94.7715 14.6054 94.4491 14.7019 94.1654 14.753C93.8301 14.8174 93.5076 14.824 93.1981 14.7724C92.8886 14.7212 92.6046 14.5731 92.3471 14.3285C92.1405 14.1485 91.9823 13.8588 91.873 13.4599C91.7632 13.0611 91.699 12.6078 91.6797 12.0992C91.6603 11.5909 91.6797 11.06 91.7374 10.5069C91.7955 9.95377 91.8952 9.42926 92.0372 8.93392C92.1792 8.43854 92.3592 7.99464 92.5791 7.60184C92.7978 7.20986 93.0561 6.9297 93.3531 6.76248C93.5201 6.78842 93.6239 6.88785 93.6626 7.06146C93.7013 7.23531 93.7106 7.44124 93.6912 7.67925C93.6723 7.91747 93.6432 8.16187 93.6045 8.4126C93.5658 8.66359 93.5464 8.87295 93.5464 9.03994C93.6109 9.3874 93.7364 9.65774 93.9237 9.85066C94.1105 10.0436 94.3203 10.1565 94.5524 10.1883C94.7844 10.2207 95.0132 10.166 95.2396 10.0243C95.4647 9.88298 95.6483 9.65774 95.7908 9.3487C95.8033 9.36167 95.8227 9.36805 95.8485 9.36805L96.1196 6.91698C96.1967 6.58224 96.1451 6.28645 95.9647 6.02913C95.7839 5.77176 95.5454 5.62364 95.2488 5.58518C94.8748 5.04475 94.3684 4.75854 93.73 4.72622C93.0916 4.69414 92.4371 4.90322 91.7664 5.35355C91.3536 5.64983 90.9893 6.05801 90.6733 6.57909C90.3569 7.1004 90.0995 7.67925 89.8997 8.31612C89.6992 8.95299 89.5576 9.62566 89.474 10.3333C89.3901 11.0409 89.374 11.7295 89.4252 12.3982C89.4769 13.0676 89.5963 13.6982 89.7835 14.2897C89.9704 14.8818 90.2314 15.3772 90.5672 15.7758C90.8508 16.1233 91.1729 16.3777 91.534 16.5386C91.8952 16.6994 92.2725 16.7989 92.6659 16.8375C93.0593 16.876 93.4495 16.8598 93.8365 16.7893C94.2235 16.7188 94.5911 16.6191 94.9393 16.4901C95.3905 16.3231 95.8553 16.1105 96.3323 15.8532C96.8093 15.5961 97.2673 15.2871 97.7059 14.9267C97.9367 14.7371 98.1586 14.5305 98.3733 14.3089C98.471 14.5508 98.5803 14.7849 98.7119 15.004C99.0601 15.5829 99.5306 16.0528 100.124 16.413C100.717 16.7731 101.446 16.9465 102.31 16.934C103.239 16.9211 104.096 16.6865 104.883 16.2296C105.67 15.7731 106.315 15.1003 106.818 14.2126C107.572 14.2126 108.313 14.0887 109.042 13.8427C109.036 13.9205 109.029 14.0025 109.024 14.0777C108.972 14.7597 108.946 15.2227 108.946 15.4673C108.934 15.8919 108.904 16.4161 108.859 17.04C108.814 17.6642 108.785 18.3204 108.772 19.0086C108.76 19.697 108.785 20.392 108.85 21.0934C108.914 21.7944 109.049 22.4315 109.256 23.0044C109.462 23.5765 109.755 24.0626 110.136 24.4617C110.516 24.8601 111.016 25.0985 111.636 25.1757C112.293 25.2654 112.861 25.1498 113.338 24.8282C113.815 24.5062 114.202 24.0658 114.499 23.5062C114.795 22.9462 115.005 22.2998 115.128 21.5665C115.25 20.8328 115.285 20.0962 115.234 19.356C115.182 18.6162 115.046 17.9184 114.827 17.2624C114.608 16.6059 114.305 16.0655 113.918 15.6407C114.151 15.5767 114.427 15.4546 114.75 15.2741C115.072 15.0941 115.404 14.8914 115.747 14.6661C115.831 14.6108 115.913 14.5525 115.997 14.4957C115.966 14.9516 115.95 15.2768 115.95 15.4673C115.937 15.8919 115.908 16.4161 115.862 17.04C115.818 17.6642 115.789 18.3204 115.776 19.0086C115.763 19.697 115.789 20.392 115.853 21.0934C115.917 21.7944 116.053 22.4315 116.259 23.0044C116.465 23.5765 116.759 24.0626 117.139 24.4617C117.52 24.8601 118.02 25.0985 118.639 25.1757C119.296 25.2654 119.864 25.1498 120.341 24.8282C120.818 24.5062 121.205 24.0658 121.502 23.5062C121.799 22.9462 122.008 22.2998 122.131 21.5665C122.253 20.8328 122.289 20.0962 122.237 19.356C122.186 18.6162 122.05 17.9184 121.831 17.2624C121.611 16.6059 121.309 16.0655 120.921 15.6407C121.154 15.5767 121.431 15.4546 121.753 15.2741C122.076 15.0941 122.408 14.8914 122.75 14.6661C122.928 14.5491 123.104 14.4284 123.28 14.3042C123.347 14.9335 123.489 15.4854 123.717 15.9497C123.995 16.5161 124.371 16.9534 124.849 17.2624C125.326 17.5709 125.887 17.7416 126.532 17.7736C127.177 17.8055 127.88 17.6867 128.641 17.4164C129.209 17.2107 129.702 16.9534 130.121 16.6446C130.54 16.3356 130.917 15.9592 131.253 15.5155C131.272 15.4898 131.29 15.4619 131.309 15.436C131.369 15.6162 131.435 15.7893 131.514 15.9497C131.791 16.5161 132.169 16.9534 132.646 17.2624C133.123 17.5709 133.684 17.7416 134.329 17.7736C134.974 17.8055 135.677 17.6867 136.438 17.4164C137.005 17.2107 137.498 16.9534 137.918 16.6446C138.337 16.3356 138.714 15.9592 139.05 15.5155C139.385 15.0714 139.691 14.5598 139.968 13.981C140.246 13.4019 140.526 12.7395 140.81 11.993C140.861 11.7873 140.813 11.6039 140.665 11.443Z" fill="#0D0C23"/>
</svg>
