<svg xmlns="http://www.w3.org/2000/svg" width="32.501" height="30.515" viewBox="0 0 32.501 30.515"><path d="M55.453,48.168c-.793.64-1.513,1.22-2.232,1.8l-7.734,6.249a2.555,2.555,0,0,1-3.647-.012q-3.493-2.827-6.986-5.644c-.2-.165-.436-.291-.722-.479-.252.15-.727.394-1.161.7a1.908,1.908,0,0,0-.6,2.057,2.453,2.453,0,0,0,.3.8c1.076,1.928,2.167,3.845,3.246,5.771a2.672,2.672,0,0,0,1.237,1.14,1.514,1.514,0,0,0,1.577-.078c.366-.241.754-.451,1.13-.673a2.875,2.875,0,0,1,3.486.263,4.921,4.921,0,0,1,.787.775,14.591,14.591,0,0,1,2.678,4.808,4.179,4.179,0,0,1,.138,1.249,1.706,1.706,0,0,1-.886,1.471c-3.857,2.338-7.591,1.99-11.21-.563A13.234,13.234,0,0,1,31.08,63.7c-1.534-2.6-3.042-5.224-4.45-7.9a13.6,13.6,0,0,1-1.617-7.541,9.633,9.633,0,0,1,4.531-7.688c.139-.09.289-.162.426-.257a1.917,1.917,0,0,1,2.523.242,8.062,8.062,0,0,1,1.79,2.362q.554,1.049,1.051,2.131c.1.222.244.219.422.219h18.8a2.516,2.516,0,0,1,1.657.5,1.87,1.87,0,0,1,.759,1.523v14.4a2.065,2.065,0,0,1-2.119,2.025c-2.339.021-4.678.011-7.017.006a.778.778,0,1,1-.023-1.555c.117-.008.235,0,.352,0h6.453c.709,0,.848-.149.848-.872V48.168ZM40.808,68.379a7.771,7.771,0,0,0,3.759-.922c1.043-.581,1.085-.7.631-1.853a14.45,14.45,0,0,0-2.235-3.753,4.316,4.316,0,0,0-.642-.618,1.279,1.279,0,0,0-1.658-.1,11.478,11.478,0,0,1-1.319.769,3.154,3.154,0,0,1-1.13.363,3.674,3.674,0,0,1-3.574-2q-1.7-2.925-3.317-5.894a4.519,4.519,0,0,1-.5-1.526,3.379,3.379,0,0,1,1.685-3.6c.42-.214.811-.484,1.225-.722a1.23,1.23,0,0,0,.624-1.276,2.982,2.982,0,0,0-.106-.64,13.455,13.455,0,0,0-2.366-4.491,2.552,2.552,0,0,0-.59-.51.438.438,0,0,0-.377-.032,6.787,6.787,0,0,0-1.036.617,8.262,8.262,0,0,0-3.383,6.685,12.628,12.628,0,0,0,1.524,6.3c1.371,2.572,2.833,5.093,4.291,7.615a12.193,12.193,0,0,0,2.309,2.82A9.155,9.155,0,0,0,40.808,68.379ZM54.645,46.837H35.859a3.245,3.245,0,0,1-.494,2.175c.182.14.343.259.5.388l6.816,5.5c.824.666,1.165.662,1.985,0q3.435-2.778,6.871-5.551C52.55,48.531,53.562,47.71,54.645,46.837Z" transform="translate(-24.717 -39.679)" fill="#ccc" stroke="#eee" stroke-width="0.5"/></svg>