<svg xmlns="http://www.w3.org/2000/svg" width="56" height="56" viewBox="0 0 56 56"><g transform="translate(-1155 -483)"><g transform="translate(1155 483)" fill="#fff" stroke="#ccc" stroke-width="0.5"><rect width="56" height="56" rx="5" stroke="none"/><rect x="0.25" y="0.25" width="55.5" height="55.5" rx="4.75" fill="none"/></g><rect width="50" height="50" rx="3" transform="translate(1158 486)" fill="#2a5699"/><path d="M-13311.888,4533h-1.816c-2.91-.532-5.876-1.042-8.743-1.537l-.02,0c-1.394-.24-2.975-.513-4.532-.785,0-4.563,0-9.139,0-13.563v-6.78c1.626-.284,3.281-.57,4.88-.848l.023,0c2.765-.479,5.623-.974,8.47-1.48h1.738v2.326c.433,0,.9,0,1.467,0l2.054,0h.237c.754,0,1.5,0,2.25,0,1.286,0,2.34.007,3.318.023.037,0,.076-.006.114-.006a1,1,0,0,1,.752.324,1.029,1.029,0,0,1,.256.793c.025,2.994.021,6.018.017,8.943,0,2.694-.008,5.479.012,8.24-.006.125-.007.255-.008.381v0a2.452,2.452,0,0,1-.275,1.375,2.147,2.147,0,0,1-1.234.28c-.072,0-.153,0-.232.008-1.756-.008-3.463-.009-4.9-.009h-3.825V4533Zm0-5.523v2.325h9.593v-18.6h-9.593v2.035h7.559v1.163h-7.559v1.454h7.559v1.163h-7.559v1.453h7.559v1.163h-7.559v1.454h7.559v1.163h-7.559v1.454h7.559v1.162h-7.559v1.454h7.559v1.164Zm-7.067-3a4.914,4.914,0,0,1,.55.043h0a4.779,4.779,0,0,0,.544.042h.009a1.166,1.166,0,0,0,.55-.111c.458-1.787.862-3.608,1.253-5.37l.022-.1c.218-.979.443-1.992.675-2.984-.558.033-1.15.067-1.741.087-.073.424-.15.856-.224,1.274l-.047.265c-.246,1.4-.525,2.984-.773,4.5-.371-1.735-.753-3.6-1.2-5.874l-.649.032h-.027c-.321.016-.654.032-.98.05-.236,1.106-.477,2.211-.743,3.436l-.061.278c-.143.653-.289,1.327-.433,1.989-.17-1.213-.379-2.44-.579-3.627v0c-.106-.628-.217-1.278-.32-1.917-.457.016-.945.036-1.494.062.261,1.476.563,2.968.855,4.412l0,.021c.215,1.056.437,2.148.641,3.23.64.043,1.173.075,1.68.1.128-.606.261-1.222.391-1.817l.014-.062,0-.019c.266-1.212.54-2.466.764-3.707.216,1.2.475,2.415.726,3.586l.011.052c.149.7.3,1.421.446,2.133C-13319.045,4524.477-13319,4524.475-13318.955,4524.475Z" transform="translate(14497 -4009)" fill="#fff"/></g></svg>