<svg xmlns="http://www.w3.org/2000/svg" width="30.013" height="30" viewBox="0 0 30.013 30"><g transform="translate(-0.993 -1)"><path d="M31.007,16A15.006,15.006,0,1,0,13.663,30.817V20.334H9.857V16h3.808V12.7c0-3.758,2.239-5.837,5.665-5.837a23.018,23.018,0,0,1,3.358.294v3.692H20.8a2.166,2.166,0,0,0-2.443,2.342V16h4.159l-.664,4.335h-3.5V30.817A15,15,0,0,0,31.007,16Z" transform="translate(0)" fill="#1877f2"/><path d="M17.119,17.211l.664-4.335H13.624V10.063a2.166,2.166,0,0,1,2.443-2.342h1.892V4.027A23.018,23.018,0,0,0,14.6,3.733c-3.428,0-5.665,2.078-5.665,5.837v3.306H5.13v4.335H8.938V27.693a15.079,15.079,0,0,0,4.688,0V17.211Z" transform="translate(4.727 3.123)" fill="#fff"/></g></svg>