<svg xmlns="http://www.w3.org/2000/svg" width="33.74" height="30.493" viewBox="0 0 33.74 30.493"><g transform="translate(787.371 -1285.274)"><path d="M-787.121,1287.935a3,3,0,0,1,1.03-1.79,2.94,2.94,0,0,1,1.9-.62q12.3,0,24.592,0a2.751,2.751,0,0,1,2.925,2.6.8.8,0,0,0,.027.1,6.948,6.948,0,0,1,.757.119,2.565,2.565,0,0,1,1.334,4.215c-.577.66-1.232,1.256-1.865,1.867a.738.738,0,0,0-.249.584c.007,3.59,0,7.18.008,10.769a2.785,2.785,0,0,1-1.107,2.369,2.985,2.985,0,0,1-1.885.56q-9.571,0-19.142-.008a.939.939,0,0,0-.731.3q-3.119,3.1-6.257,6.175c-.232.229-.488.439-.821.3a2.2,2.2,0,0,1-.515-.439Zm29.074,8.12c-.133.122-.219.2-.3.275-1.538,1.513-3.071,3.031-4.618,4.535a1.385,1.385,0,0,1-.63.352c-1.054.232-2.115.429-3.174.636-.666.13-1.058-.25-.934-.9.066-.345.142-.688.212-1.032.141-.7.281-1.393.429-2.121h-12.1a3.312,3.312,0,0,1-.453-.019.648.648,0,0,1-.567-.6.634.634,0,0,1,.466-.683,1.826,1.826,0,0,1,.48-.05q6.489,0,12.978,0a.691.691,0,0,0,.537-.219q2-1.986,4.012-3.957c1.181-1.156,2.37-2.3,3.551-3.46a.416.416,0,0,0,.109-.243,1.461,1.461,0,0,0-1.592-1.676q-12.247.025-24.5.01a1.407,1.407,0,0,0-1.6,1.568q0,12.191,0,24.383c0,.089.011.179.021.321.123-.115.209-.192.291-.273,1.728-1.7,3.462-3.4,5.179-5.112a1.417,1.417,0,0,1,1.089-.439q9.749.015,19.5.007a1.42,1.42,0,0,0,1.615-1.593q0-4.666,0-9.331Zm-8.115,4.286c.663-.132,1.271-.235,1.867-.382a1.418,1.418,0,0,0,.63-.33q2.894-2.822,5.765-5.666c.081-.08.159-.165.21-.218l-1.778-1.752a.083.083,0,0,0-.029.02q-3.041,2.993-6.08,5.99a.522.522,0,0,0-.153.235C-765.878,1298.922-766.013,1299.607-766.162,1300.341Zm7.742-9.4,1.8,1.769c.315-.314.658-.638.979-.981a1.22,1.22,0,0,0-.019-1.75,1.27,1.27,0,0,0-1.777.007C-757.776,1290.3-758.1,1290.629-758.421,1290.943Z" transform="translate(0 0)" fill="#ccc" stroke="#ccc" stroke-width="0.5"/><path d="M-693.5,1372.137q-3.65,0-7.3,0a2.843,2.843,0,0,1-.421-.02.655.655,0,0,1-.565-.616.647.647,0,0,1,.468-.692,1.5,1.5,0,0,1,.415-.049q7.414,0,14.828,0c.6,0,.932.307.864.784a.646.646,0,0,1-.568.577,3.041,3.041,0,0,1-.421.018Z" transform="translate(-78.4 -78.417)" fill="#ccc" stroke="#ccc" stroke-width="0.5"/><path d="M-696.941,1474.338h-3.889a2.58,2.58,0,0,1-.388-.02.656.656,0,0,1-.564-.616.647.647,0,0,1,.466-.692,1.486,1.486,0,0,1,.415-.05q3.954,0,7.908,0a1.488,1.488,0,0,1,.353.034.682.682,0,0,1,.528.686.685.685,0,0,1-.616.645,3.005,3.005,0,0,1-.356.014Z" transform="translate(-78.4 -172.441)" fill="#ccc" stroke="#ccc" stroke-width="0.5"/></g></svg>