<svg xmlns="http://www.w3.org/2000/svg" width="23.773" height="24" viewBox="0 0 23.773 24">
  <path id="expand" d="M8.262,24H1.189A1.2,1.2,0,0,1,0,22.8V15.6a1.231,1.231,0,0,1,.412-.92,1.186,1.186,0,0,1,.958-.277,1.247,1.247,0,0,1,1.008,1.256V19.92l6.3-6.359a1.125,1.125,0,0,1,1.783.119,1.271,1.271,0,0,1-.18,1.621L4.042,21.6H8.321a1.171,1.171,0,0,1,.909.412,1.2,1.2,0,0,1,.278.967A1.252,1.252,0,0,1,8.282,24ZM13.37,10.381A1.212,1.212,0,0,1,13.49,8.7l6.24-6.3H15.51a1.25,1.25,0,0,1-1.246-1.02,1.209,1.209,0,0,1,.277-.967A1.185,1.185,0,0,1,15.452,0H22.58a1.2,1.2,0,0,1,1.191,1.2V8.4a1.209,1.209,0,0,1-.41.92A1.18,1.18,0,0,1,22.4,9.6a1.253,1.253,0,0,1-1.01-1.258V4.08l-6.3,6.359a1.182,1.182,0,0,1-.832.361h-.046A1.067,1.067,0,0,1,13.37,10.381Z" transform="translate(0.001 0)" fill="#a4abb4"/>
</svg>
