<svg xmlns="http://www.w3.org/2000/svg" width="30" height="30" viewBox="0 0 30 30"><g transform="translate(0 0.001)"><circle cx="15" cy="15" r="15" transform="translate(0 -0.001)" fill="#eceff1"/><circle cx="15" cy="15" r="15" transform="translate(0 -0.001)" fill="#eceff1"/><path d="M76.087,84.383A14.953,14.953,0,0,0,71.617,73.7L63.044,80.47l-2.609.652-8.478-5.869-2.177-.726q-.435.5-.824,1.034L67.717,97.84A15,15,0,0,0,76.087,84.383Z" transform="translate(-46.088 -69.384)" fill="#cfd8dc"/><path d="M448.607,113.384a14.932,14.932,0,0,0-2.908-8.876l-1.037.814v18.2A14.945,14.945,0,0,0,448.607,113.384Z" transform="translate(-418.608 -98.385)" fill="#ff4d39"/><path d="M70.49,56.273l-9.012,6.816a.614.614,0,0,1-.741,0l-9.011-6.816a15.086,15.086,0,0,0-2.748,2.879l11.751,9.219a.614.614,0,0,0,.758,0l11.751-9.219A15.084,15.084,0,0,0,70.49,56.273Z" transform="translate(-46.108 -52.976)" fill="#ff4d39"/><path d="M3.946,123.522v-18.2l-1.037-.814a15,15,0,0,0,1.037,19.014Z" transform="translate(0 -98.385)" fill="#ff4d39"/></g></svg>