<svg width="31" height="30" viewBox="0 0 31 30" fill="none" xmlns="http://www.w3.org/2000/svg">
<circle cx="15.501" cy="15" r="15" fill="black"/>
<path d="M15.2421 10.341C15.0505 9.29646 15.5444 8.22156 16.1392 7.49716C16.7947 6.69789 17.9196 6.08494 18.8809 6.01758C19.0433 7.11266 18.5963 8.17962 18.0081 8.93432C17.377 9.74509 16.292 10.3738 15.2421 10.341ZM20.8808 14.1257C21.1783 13.2958 21.7676 12.5491 22.6818 12.0453C21.7579 10.8925 20.4609 10.2232 19.2368 10.2232C17.6173 10.2232 16.9326 10.9948 15.8078 10.9948C14.649 10.9948 13.7699 10.2232 12.3672 10.2232C10.9916 10.2232 9.52737 11.0616 8.59875 12.4935C8.25731 13.0227 8.02602 13.6803 7.89988 14.4126C7.54986 16.4671 8.07271 19.1432 9.63235 21.5193C10.3907 22.6723 11.4014 23.971 12.7219 23.9823C13.8982 23.9938 14.2319 23.2302 15.8243 23.2223C17.4191 23.2133 17.7213 23.9902 18.896 23.979C20.2168 23.9678 21.2833 22.5306 22.0416 21.3777C22.5816 20.5504 22.7858 20.1326 23.2056 19.1972C21.0707 18.3921 20.1927 16.0396 20.8808 14.1257Z" fill="white"/>
</svg>
