<svg width="23" height="24" viewBox="0 0 23 24" fill="none" xmlns="http://www.w3.org/2000/svg">
<path d="M0 12.0001C0 12.2931 0.116333 12.5742 0.323478 12.7814C0.530624 12.9885 0.811726 13.1048 1.10471 13.1048H10.5903L8.05704 15.6381C7.77776 15.9172 7.66864 16.3241 7.77073 16.7055C7.87282 17.0868 8.17041 17.3848 8.55177 17.4871C8.93315 17.5894 9.34002 17.4804 9.61913 17.2013L14.0382 12.7823C14.0526 12.7679 14.057 12.7492 14.0702 12.7348H14.0704C14.2409 12.5661 14.3385 12.3373 14.342 12.0974C14.3506 12.0652 14.3572 12.0329 14.362 12.0001C14.3572 11.9681 14.3506 11.9363 14.342 11.9051C14.3382 11.7919 14.3162 11.68 14.2769 11.5736C14.2265 11.4591 14.1565 11.3541 14.0704 11.2633C14.057 11.2478 14.0526 11.2291 14.0384 11.2146L9.61932 6.79561H9.61913C9.3393 6.51652 8.93183 6.40795 8.55031 6.51078C8.16878 6.61362 7.87096 6.91213 7.76926 7.29405C7.66754 7.67598 7.77721 8.08305 8.05704 8.36217L10.5903 10.8954H1.10472C0.811759 10.8954 0.530633 11.0118 0.323488 11.2189C0.116342 11.4261 0 11.7071 0 12.0001Z" fill="#A4ABB4"/>
<path d="M4.41917 16.419C4.1262 16.419 3.84508 16.5355 3.63793 16.7426C3.43079 16.9498 3.31445 17.2307 3.31445 17.5239V19.8759C3.31686 20.7159 3.63719 21.524 4.21093 22.1377C4.78483 22.7514 5.56976 23.125 6.40776 23.1836L18.5605 23.9933C18.6333 23.9933 18.7062 24 18.7815 24H18.7813C19.6603 24 20.5034 23.6508 21.125 23.0294C21.7464 22.4077 22.0956 21.5647 22.0956 20.6857V3.31433C22.0956 2.43414 21.7455 1.59003 21.1226 0.968406C20.4997 0.346591 19.6548 -0.00183925 18.7746 7.30226e-06C18.704 7.30226e-06 18.6331 7.35871e-06 18.5614 0.00666537L6.40867 0.816403H6.40886C5.57066 0.874664 4.78555 1.24826 4.21146 1.86193C3.63737 2.4756 3.31683 3.28382 3.31446 4.12405V6.47609C3.31446 6.87077 3.52493 7.2355 3.86672 7.43284C4.20851 7.63019 4.62982 7.63019 4.97162 7.43284C5.31341 7.2355 5.52388 6.87078 5.52388 6.47609V4.12405C5.52333 3.8433 5.62968 3.57269 5.82128 3.36758C6.01308 3.16229 6.27571 3.03782 6.55574 3.01932L18.7813 2.20944C19.0745 2.20944 19.3554 2.32596 19.5626 2.5331C19.7697 2.74025 19.8862 3.02121 19.8862 3.31434V20.6857C19.8877 20.9921 19.7607 21.2851 19.5359 21.4934C19.3173 21.697 19.0257 21.8034 18.7273 21.7884L6.55571 20.9774C6.2757 20.9589 6.01306 20.8344 5.82126 20.6291C5.62965 20.424 5.5233 20.1534 5.52386 19.8726V17.5239C5.52386 17.2308 5.40753 16.9499 5.20038 16.7427C4.99324 16.5356 4.71213 16.419 4.41915 16.419L4.41917 16.419Z" fill="#A4ABB4"/>
</svg>
