<svg xmlns="http://www.w3.org/2000/svg" width="56" height="56" viewBox="0 0 56 56"><g transform="translate(-932 -483)"><g transform="translate(932 483)" fill="#fff" stroke="#ccc" stroke-width="0.5"><rect width="56" height="56" rx="5" stroke="none"/><rect x="0.25" y="0.25" width="55.5" height="55.5" rx="4.75" fill="none"/></g><rect width="50" height="50" rx="3" transform="translate(935 486)" fill="#ff2116"/><g transform="translate(948 499)"><g transform="translate(0 0)"><path d="M145.811,184.58a30.2,30.2,0,0,1-2.492-2.15c-.794-.794-1.5-1.562-2.115-2.3a23.334,23.334,0,0,0,1.378-5.3c0-3.457-1.25-4.167-3.125-4.167-1.425,0-3.125.741-3.125,4.266a9.988,9.988,0,0,0,2.54,5.635c-.413,1.261-.9,2.715-1.443,4.353q-.394,1.179-.849,2.189-.367.162-.713.334c-.828.414-1.615.786-2.343,1.132-3.327,1.575-5.524,2.617-5.524,4.673,0,1.494,1.623,2.418,3.125,2.418,1.937,0,4.862-2.586,7-6.945a41.44,41.44,0,0,1,7.151-1.929,11.951,11.951,0,0,0,4.6,2.63c2.583,0,3.125-1.494,3.125-2.746,0-2.463-2.814-2.463-4.167-2.463a24.657,24.657,0,0,0-3.023.368Zm-14.695,9a1.645,1.645,0,0,1-1.041-.334c0-.738,2.2-1.782,4.331-2.784l.411-.195c-1.559,2.258-3.106,3.313-3.694,3.313Zm7.292-18.652c0-2.183.678-2.183,1.041-2.183.736,0,1.041,0,1.041,2.084a16.707,16.707,0,0,1-.829,3.248,6.4,6.4,0,0,1-1.244-3.149Zm.8,11.2q.1-.272.189-.549c.387-1.16.735-2.2,1.044-3.14q.648.715,1.392,1.463c.195.195.679.634,1.324,1.185-1.267.28-2.627.634-3.94,1.041Zm11.7.541c0,.464,0,.662-.967.668a7.665,7.665,0,0,1-1.749-1c.294-.032.51-.049.633-.049,1.55,0,1.986.152,2.093.381Z" transform="translate(-128.001 -170.665)" fill="#fff"/></g></g></g></svg>