<svg width="31" height="30" viewBox="0 0 31 30" fill="none" xmlns="http://www.w3.org/2000/svg">
<circle cx="15.501" cy="15" r="15" fill="#F0F0F0"/>
<path d="M20.1159 12.1743C18.0249 11.0048 14.6687 9.12677 9.46304 6.21199C9.11207 5.9802 8.70827 5.94983 8.35938 6.06792L17.2909 14.9994L20.1159 12.1743Z" fill="#32BBFF"/>
<path d="M8.35925 6.06787C8.29386 6.09002 8.23023 6.11674 8.16937 6.14901C7.78409 6.35742 7.50098 6.75845 7.50098 7.26565V22.7331C7.50098 23.2403 7.78406 23.6413 8.16937 23.8497C8.23012 23.8819 8.29372 23.9087 8.35904 23.931L17.2907 14.9994L8.35925 6.06787Z" fill="#32BBFF"/>
<path d="M17.2901 14.9995L8.3584 23.9312C8.7074 24.0501 9.1112 24.0221 9.46227 23.7869C14.5107 20.96 17.829 19.1042 19.9442 17.9247C20.0031 17.8917 20.0608 17.8593 20.1178 17.8273L17.2901 14.9995Z" fill="#32BBFF"/>
<path d="M9.46347 6.21192C9.04669 5.93672 8.5552 5.94456 8.16992 6.14902L17.1557 15.1349L20.1163 12.1743C18.0253 11.0047 14.6691 9.1267 9.46347 6.21192Z" fill="#29CC5E"/>
<path d="M17.1558 14.8638L8.16992 23.8496C8.55524 24.054 9.04669 24.0658 9.46347 23.7867C14.5119 20.9598 17.8302 19.104 19.9454 17.9245C20.0043 17.8914 20.062 17.8591 20.119 17.827L17.1558 14.8638Z" fill="#D93F21"/>
<path d="M23.845 14.9995C23.845 14.5709 23.6288 14.1384 23.2002 13.8986C23.2002 13.8986 22.3987 13.4513 19.9418 12.0771L17.0195 14.9995L19.9447 17.9246C22.3746 16.5603 23.2002 16.1003 23.2002 16.1003C23.6288 15.8605 23.845 15.428 23.845 14.9995Z" fill="#FFD500"/>
</svg>
