<svg xmlns="http://www.w3.org/2000/svg" width="24" height="30" viewBox="0 0 24 30"><path d="M156.628,28a1,1,0,0,0-.791.552c-.143.286-.24.567-.406.948a8.947,8.947,0,0,1-.625,1.208c-.5.784-1.049,1.292-1.74,1.292H149.4a1,1,0,0,0-1,1V43a14.321,14.321,0,0,0,4.552,10.333,22.193,22.193,0,0,0,7.073,4.594h0a1,1,0,0,0,.75,0,22.188,22.188,0,0,0,7.073-4.594A14.321,14.321,0,0,0,172.4,43V33a1,1,0,0,0-1-1h-3.667c-.691,0-1.24-.507-1.74-1.292a8.946,8.946,0,0,1-.625-1.208c-.166-.381-.263-.662-.406-.948h0a1,1,0,0,0-.9-.552h-7.333a.972.972,0,0,0-.1,0Zm.76,2h6.021c.053.127.059.15.125.3a10.742,10.742,0,0,0,.771,1.479A4.2,4.2,0,0,0,167.732,34H170.4v9a12.2,12.2,0,0,1-3.948,8.906,19.945,19.945,0,0,1-6.052,3.969,19.951,19.951,0,0,1-6.052-3.969A12.2,12.2,0,0,1,150.4,43V34h2.667a4.2,4.2,0,0,0,3.427-2.219,10.749,10.749,0,0,0,.771-1.479c.066-.152.072-.175.125-.3Zm3.011,7.667a3.682,3.682,0,0,0-3.667,3.667,3.421,3.421,0,0,0,1,2.323v2.677a2.018,2.018,0,0,0,2,2h1.333a2.018,2.018,0,0,0,2-2V43.66a3.421,3.421,0,0,0,1-2.323A3.682,3.682,0,0,0,160.4,37.671Zm0,2a1.652,1.652,0,0,1,1.667,1.667,1.43,1.43,0,0,1-.625,1.219,1,1,0,0,0-.375.781v3h-1.333v-3a1,1,0,0,0-.375-.781,1.43,1.43,0,0,1-.625-1.219,1.652,1.652,0,0,1,1.667-1.667Z" transform="translate(-148.399 -28.003)" fill="#ccc"/></svg>