<svg xmlns="http://www.w3.org/2000/svg" width="23.77" height="23.998" viewBox="0 0 23.77 23.998"><path d="M1.076,24a1.129,1.129,0,0,1-.862-.5,1.269,1.269,0,0,1,.179-1.62l6.239-6.3H2.353a1.185,1.185,0,0,1-.91-.412,1.211,1.211,0,0,1-.278-.968,1.251,1.251,0,0,1,1.247-1.021H9.483a1.194,1.194,0,0,1,1.188,1.2v7.2a1.2,1.2,0,0,1-.409.92,1.183,1.183,0,0,1-.958.281,1.257,1.257,0,0,1-1.01-1.26v-4.26L2,23.616A1.122,1.122,0,0,1,1.151,24Zm20.33-13.2h-7.13a1.194,1.194,0,0,1-1.188-1.2V2.4a1.2,1.2,0,0,1,.409-.919,1.183,1.183,0,0,1,.958-.281,1.259,1.259,0,0,1,1.011,1.26v4.26l6.3-6.359A1.182,1.182,0,0,1,22.595,0a1.065,1.065,0,0,1,.891.42A1.207,1.207,0,0,1,23.367,2.1L17.128,8.4h4.218a1.251,1.251,0,0,1,1.248,1.021,1.208,1.208,0,0,1-.278.967,1.183,1.183,0,0,1-.9.413Z" transform="translate(-0.001 -0.002)" fill="#a4abb4"/></svg>