<svg xmlns="http://www.w3.org/2000/svg" width="65" height="65" viewBox="0 0 65 65"><g transform="translate(-1544 -573)"><circle cx="32.5" cy="32.5" r="32.5" transform="translate(1544 573)"/><g transform="translate(473.566 1.946)"><path d="M1103.62,621.83a2.148,2.148,0,0,1-1.5-1.6c-1.059-3.255-2.157-6.5-3.248-9.741a.529.529,0,0,1,.086-.533q3.2-4.57,6.39-9.148a.924.924,0,0,0,.164-.337c-.081.052-.164.1-.243.156q-4.615,3.21-9.225,6.425a.572.572,0,0,1-.583.077q-4.961-1.664-9.928-3.31a1.758,1.758,0,0,1-.722-3.021,2.312,2.312,0,0,1,.792-.419q6.1-1.984,12.21-3.947c4.59-1.482,9.185-2.949,13.764-4.464a1.882,1.882,0,0,1,2.63,1.291v.586c-.045.138-.09.277-.134.415q-4.16,12.949-8.31,25.9a2.2,2.2,0,0,1-1.5,1.663Z" transform="translate(0 0)" fill="#fff"/></g></g></svg>