<svg xmlns="http://www.w3.org/2000/svg" width="30" height="30" viewBox="0 0 30 30"><g transform="translate(-1018 -484)"><circle cx="15" cy="15" r="15" transform="translate(1018 484)" fill="#02dac5"/><g transform="translate(1021.092 488.284)"><g transform="translate(3.909 3.715)"><path d="M7.687,27.1a3.751,3.751,0,0,1-2.625-1.088,3.676,3.676,0,0,1,0-5.251l2.7-2.7a3.676,3.676,0,0,1,5.251,0,.75.75,0,0,1-1.05,1.052,2.251,2.251,0,0,0-3.15,0l-2.7,2.7a2.228,2.228,0,1,0,3.15,3.15L10.952,23.2A.75.75,0,0,1,12,24.247l-1.687,1.766A3.751,3.751,0,0,1,7.687,27.1Z" transform="translate(-3.959 -12.1)" fill="#fff"/><path d="M22.275,14.126a3.751,3.751,0,0,1-2.625-1.088.75.75,0,0,1,1.05-1.05,2.251,2.251,0,0,0,3.15,0l2.7-2.7a2.228,2.228,0,1,0-3.15-3.15L21.713,7.9a.75.75,0,0,1-1.05-1.05L22.35,5.089A3.713,3.713,0,1,1,27.6,10.34l-2.7,2.7a3.751,3.751,0,0,1-2.626,1.087Z" transform="translate(-13.671 -4.001)" fill="#fff"/></g></g></g></svg>