<svg width="29" height="30" viewBox="0 0 29 30" fill="none" xmlns="http://www.w3.org/2000/svg">
<path d="M9.39692 13.0176L19.188 8.12246M19.1924 21.8807L9.4111 16.99M27.5894 6.13713C27.5894 7.0136 27.3294 7.8704 26.8425 8.59917C26.3556 9.32793 25.6634 9.89594 24.8537 10.2314C24.0439 10.5668 23.1529 10.6545 22.2932 10.4835C21.4336 10.3125 20.644 9.89048 20.0242 9.27071C19.4044 8.65095 18.9824 7.86132 18.8114 7.00168C18.6404 6.14204 18.7282 5.251 19.0636 4.44124C19.399 3.63148 19.967 2.93936 20.6958 2.45242C21.4245 1.96547 22.2813 1.70557 23.1578 1.70557C24.3331 1.70557 25.4603 2.17246 26.2914 3.00354C27.1225 3.83462 27.5894 4.9618 27.5894 6.13713ZM9.86312 15.0002C9.86312 15.8767 9.60321 16.7335 9.11627 17.4623C8.62932 18.1911 7.93721 18.7591 7.12744 19.0945C6.31768 19.4299 5.42665 19.5176 4.56701 19.3467C3.70737 19.1757 2.91774 18.7536 2.29798 18.1338C1.67821 17.5141 1.25615 16.7244 1.08515 15.8648C0.91416 15.0052 1.00192 14.1141 1.33733 13.3044C1.67275 12.4946 2.24075 11.8025 2.96952 11.3155C3.69828 10.8286 4.55508 10.5687 5.43156 10.5687C6.60688 10.5687 7.73407 11.0356 8.56515 11.8667C9.39622 12.6977 9.86312 13.8249 9.86312 15.0002ZM27.5894 23.8634C27.5894 24.7398 27.3294 25.5966 26.8425 26.3254C26.3556 27.0542 25.6634 27.6222 24.8537 27.9576C24.0439 28.293 23.1529 28.3808 22.2932 28.2098C21.4336 28.0388 20.644 27.6167 20.0242 26.9969C19.4044 26.3772 18.9824 25.5876 18.8114 24.7279C18.6404 23.8683 18.7282 22.9772 19.0636 22.1675C19.399 21.3577 19.967 20.6656 20.6958 20.1787C21.4245 19.6917 22.2813 19.4318 23.1578 19.4318C24.3331 19.4318 25.4603 19.8987 26.2914 20.7298C27.1225 21.5609 27.5894 22.688 27.5894 23.8634Z" stroke="#CCCCCC" stroke-width="2"/>
</svg>
