<svg width="26" height="26" viewBox="0 0 26 26" fill="none" xmlns="http://www.w3.org/2000/svg">
<g id="Group 17174">
<circle id="Ellipse 1268" cx="13.229" cy="13.4509" r="12" stroke="#DDDDDD"/>
<path id="Path 28168" d="M16.729 13.4509C16.729 13.6597 16.6366 13.8599 16.4723 14.0074L11.2142 18.73C11.0489 18.8734 10.8275 18.9527 10.5977 18.9509C10.3679 18.9491 10.1482 18.8663 9.98567 18.7204C9.82319 18.5745 9.73103 18.377 9.72904 18.1707C9.72704 17.9643 9.81534 17.7655 9.97497 17.6171L14.6136 13.4509L9.97497 9.28485C9.81534 9.1364 9.72704 8.93756 9.72904 8.73118C9.73103 8.52481 9.82319 8.32739 9.98567 8.18146C10.1482 8.03552 10.3679 7.95275 10.5977 7.95096C10.8275 7.94916 11.0489 8.02852 11.2142 8.1719L16.4723 12.8945C16.6366 13.042 16.729 13.2422 16.729 13.4509Z" fill="#CCCCCC"/>
</g>
</svg>
