<svg xmlns="http://www.w3.org/2000/svg" width="129.441" height="80.5" viewBox="0 0 129.441 80.5"><g transform="translate(-894.442 -469.5)"><path d="M129.6,36.928c0,2.838-2.482,6.22-5.32,6.22H5.158c-2.857,0-5-3.382-5-6.22a1.158,1.158,0,0,1,1.15-1.17H46.965a.786.786,0,0,1,.594.268l.038-.019,1.937,2.167h30.7l1.937-2.167.038.019a.719.719,0,0,1,.575-.268h45.652a1.162,1.162,0,0,1,1.17,1.17" transform="translate(894.279 506.853)" fill="#02dac5"/><rect width="105" height="64" rx="7" transform="translate(908 471)" fill="#f4f6f7" stroke="#18639c" stroke-width="3"/><path d="M52.185,29.014A1.436,1.436,0,0,1,51,28.394a14.567,14.567,0,0,0-3.061-3.072A13,13,0,0,0,39.994,22.6a13.987,13.987,0,0,0-10.777,5.49,1.438,1.438,0,0,1-2.322-1.7,17.076,17.076,0,0,1,3.7-3.574,16.082,16.082,0,0,1,9.41-3.1c8.258,0,12.867,6.313,13.366,7.033a1.438,1.438,0,0,1-1.181,2.257Z" transform="translate(920.172 486.324)" fill="#18639c"/><path d="M31.747,13.518c.821,1.739-.238,3.959-2.36,4.962s-4.512.406-5.332-1.333.238-3.959,2.36-4.962,4.512-.406,5.332,1.333" transform="translate(917.566 478.963)" fill="#18639c"/><path d="M39.214,13.518c-.821,1.739.238,3.959,2.36,4.962s4.512.406,5.332-1.333-.238-3.959-2.36-4.962-4.512-.406-5.332,1.333" transform="translate(931.473 478.963)" fill="#18639c"/></g></svg>