<svg xmlns="http://www.w3.org/2000/svg" width="30" height="30" viewBox="0 0 30 30"><g transform="translate(-4 -4)"><circle cx="15" cy="15" r="15" transform="translate(4 4)" fill="#1da1f2"/><path d="M30,15.731a7.373,7.373,0,0,1-2.121.581A3.7,3.7,0,0,0,29.5,14.27a7.4,7.4,0,0,1-2.345.9,3.7,3.7,0,0,0-6.292,3.368,10.482,10.482,0,0,1-7.612-3.858,3.7,3.7,0,0,0,1.143,4.93,3.681,3.681,0,0,1-1.673-.462v.046a3.7,3.7,0,0,0,2.962,3.622,3.693,3.693,0,0,1-1.668.063,3.7,3.7,0,0,0,3.45,2.565A7.446,7.446,0,0,1,12,26.969a10.5,10.5,0,0,0,16.167-8.847c0-.16,0-.32-.011-.478A7.522,7.522,0,0,0,30,15.731Z" transform="translate(-2 -2.5)" fill="#fff" fill-rule="evenodd"/></g></svg>