<svg xmlns="http://www.w3.org/2000/svg" width="56" height="56" viewBox="0 0 56 56"><g transform="translate(-705 -483)"><g transform="translate(705 483)" fill="#fff" stroke="#ccc" stroke-width="0.5"><rect width="56" height="56" rx="5" stroke="none"/><rect x="0.25" y="0.25" width="55.5" height="55.5" rx="4.75" fill="none"/></g><rect width="50" height="50" rx="3" transform="translate(708 486)" fill="#7693ff"/><path d="M-13325.878,4533a1.121,1.121,0,0,1-1.121-1.121,1.121,1.121,0,0,1,1.121-1.121h26.757a1.121,1.121,0,0,1,1.12,1.121,1.121,1.121,0,0,1-1.12,1.121Zm0-4.84a1.121,1.121,0,0,1-1.121-1.121,1.121,1.121,0,0,1,1.121-1.121h26.757a1.121,1.121,0,0,1,1.12,1.121,1.121,1.121,0,0,1-1.12,1.121Zm17.469-5.974a1.12,1.12,0,0,1-1.12-1.121,1.12,1.12,0,0,1,1.12-1.12h9.288a1.12,1.12,0,0,1,1.12,1.12,1.12,1.12,0,0,1-1.12,1.121Zm-8.445-.074h-5.743a.916.916,0,0,1-.923-.826v-.592a.949.949,0,0,1,.9-.876h1.629v-9.489h-3.666v2.5a.853.853,0,0,1-.134.458l-.113.147a.837.837,0,0,1-.605.217l-.772,0a.792.792,0,0,1-.462-.217.824.824,0,0,1-.261-.588v-4.037a.879.879,0,0,1,.886-.806h12.777a.855.855,0,0,1,.839.826v4.094a.829.829,0,0,1-.23.589.788.788,0,0,1-.585.234h-.716a.86.86,0,0,1-.629-.244.784.784,0,0,1-.2-.585v-2.583h-3.528v9.489h1.749a.843.843,0,0,1,.318.094l.14.09a.827.827,0,0,1,.308.592v.659a.958.958,0,0,1-.966.86Zm8.445-5.9a1.12,1.12,0,0,1-1.12-1.12,1.12,1.12,0,0,1,1.12-1.121h9.288a1.12,1.12,0,0,1,1.12,1.121,1.12,1.12,0,0,1-1.12,1.12Zm0-5.977a1.117,1.117,0,0,1-1.12-1.117,1.12,1.12,0,0,1,1.12-1.121h9.288a1.121,1.121,0,0,1,1.12,1.121,1.118,1.118,0,0,1-1.12,1.117Z" transform="translate(14045.502 -4009.502)" fill="#fff"/></g></svg>