<svg width="26" height="30" viewBox="0 0 26 30" fill="none" xmlns="http://www.w3.org/2000/svg">
<path d="M5.26662 30C4.11722 30.0045 3.01066 29.5641 2.17862 28.771C1.77409 28.3936 1.45111 27.9373 1.2296 27.4303C1.00809 26.9233 0.892727 26.3763 0.890625 25.823L0.890625 4.17703C0.892573 3.62344 1.00785 3.07611 1.22937 2.56876C1.45088 2.06141 1.77394 1.60479 2.17862 1.22703C3.0112 0.435102 4.11757 -0.00450843 5.26662 3.48677e-05H17.2386C17.5325 0.0019392 17.8137 0.120241 18.0206 0.329035L25.5906 7.92003C25.7774 8.11151 25.8846 8.36665 25.8906 8.63404V25.823C25.8887 26.3765 25.7734 26.9237 25.5518 27.4308C25.3303 27.938 25.0073 28.3945 24.6026 28.772C23.7708 29.5646 22.6646 30.0047 21.5156 30H5.26662ZM3.06063 4.17703V25.823C3.08297 26.3914 3.32599 26.9287 3.73807 27.3208C4.15015 27.7129 4.69884 27.9289 5.26762 27.923H21.5156C22.0842 27.9287 22.6327 27.7125 23.0445 27.3204C23.4564 26.9284 23.6993 26.3912 23.7216 25.823V9.65904H19.7576C18.8253 9.67998 17.9228 9.33033 17.2479 8.68677C16.573 8.04321 16.181 7.15827 16.1576 6.22603V2.07403H5.26662C4.69744 2.06816 4.14843 2.28465 3.73642 2.67741C3.32442 3.07018 3.08196 3.60822 3.06063 4.17703ZM18.3306 6.22503C18.3416 6.59373 18.4977 6.94319 18.7649 7.19747C19.0321 7.45175 19.3888 7.59031 19.7576 7.58303H22.2476L18.3306 3.65103V6.22503ZM7.29063 25.109C7.15061 25.1152 7.01081 25.0929 6.87963 25.0436C6.74846 24.9942 6.62863 24.9188 6.52738 24.8219C6.42613 24.725 6.34555 24.6086 6.2905 24.4798C6.23545 24.3509 6.20707 24.2122 6.20707 24.072C6.20707 23.9319 6.23545 23.7932 6.2905 23.6643C6.34555 23.5354 6.42613 23.419 6.52738 23.3221C6.62863 23.2252 6.74846 23.1498 6.87963 23.1005C7.01081 23.0511 7.15061 23.0289 7.29063 23.035H19.4906C19.6306 23.0284 19.7705 23.0501 19.9018 23.099C20.0332 23.1478 20.1533 23.2227 20.2549 23.3192C20.3565 23.4158 20.4375 23.5318 20.493 23.6605C20.5485 23.7892 20.5775 23.9277 20.578 24.0679C20.5785 24.208 20.5507 24.3468 20.4962 24.4759C20.4416 24.6049 20.3615 24.7216 20.2606 24.8189C20.1598 24.9162 20.0403 24.9921 19.9093 25.0419C19.7783 25.0918 19.6386 25.1146 19.4986 25.109H7.29063ZM12.3066 20.336V13.436L9.84762 15.961C9.64473 16.1626 9.37325 16.2803 9.0874 16.2905C8.80155 16.3007 8.52237 16.2027 8.30562 16.016C8.20119 15.9243 8.11649 15.8123 8.05667 15.6868C7.99685 15.5613 7.96315 15.4249 7.95762 15.286C7.95293 15.1493 7.97653 15.0131 8.02695 14.8859C8.07737 14.7588 8.15352 14.6434 8.25063 14.547L12.5906 10.091C12.6941 9.98633 12.8174 9.90321 12.9533 9.84647C13.0891 9.78974 13.2349 9.76053 13.3821 9.76053C13.5294 9.76053 13.6751 9.78974 13.811 9.84647C13.9469 9.90321 14.0701 9.98633 14.1736 10.091L18.5196 14.551C18.6166 14.648 18.6925 14.7639 18.7424 14.8916C18.7923 15.0194 18.8152 15.156 18.8096 15.293C18.8035 15.4296 18.7701 15.5636 18.7114 15.6871C18.6526 15.8106 18.5697 15.9211 18.4676 16.012C18.2549 16.2016 17.9777 16.3025 17.693 16.2939C17.4082 16.2853 17.1375 16.168 16.9366 15.966L14.4756 13.435V20.335C14.4636 20.6147 14.3441 20.879 14.1419 21.0727C13.9397 21.2663 13.6706 21.3744 13.3906 21.3744C13.1107 21.3744 12.8415 21.2663 12.6394 21.0727C12.4372 20.879 12.3176 20.6147 12.3056 20.335L12.3066 20.336Z" fill="#CCCCCC"/>
</svg>
