<svg width="31" height="30" viewBox="0 0 31 30" fill="none" xmlns="http://www.w3.org/2000/svg">
<rect x="0.500977" width="30" height="30" rx="15" fill="#1F8DCE"/>
<path d="M19.8191 10.5096V10.2032C19.8191 9.02553 19.2446 7.98191 18.3542 7.34043C18.3446 7.33085 18.3254 7.35 18.3254 7.36915C18.3254 7.36915 18.3254 7.36915 18.3254 7.37872C18.7946 7.97234 19.0148 8.6234 19.0435 9.5234C19.0435 9.60957 19.0723 10.0691 19.0723 10.2128V10.5191H18.4499V9.53298C18.4499 7.58936 16.8605 6 14.9169 6C12.9733 6 11.384 7.58936 11.384 9.53298V10.5191H6.50098V22.583C6.50098 23.3681 7.13289 24 7.90842 24H23.285C24.0606 24 24.6925 23.3681 24.6925 22.583V10.5191H19.8191V10.5096ZM12.7531 10.5096H12.1308V9.5234C12.1308 7.98191 13.385 6.71809 14.9361 6.71809C15.2999 6.71809 15.6542 6.78511 15.9701 6.91915C15.2903 6.9 14.5627 7.06277 13.9595 7.55106C13.2223 8.20213 12.7627 9.15 12.7627 10.2032V10.5096H12.7531ZM17.7318 10.5096H13.4808V10.2032C13.4808 9.88723 13.5286 9.59043 13.6244 9.30319C13.9595 7.98191 15.1371 7.06276 16.3723 7.12979H16.3818C17.1861 7.62766 17.7223 8.50851 17.7223 9.51383V10.5096H17.7318Z" fill="white"/>
<path d="M15.272 13.4585H11.8252V16.9053H15.272V13.4585Z" fill="#F44F0D"/>
<path d="M19.3892 13.4585H15.9424V16.9053H19.3892V13.4585Z" fill="#7CBC00"/>
<path d="M19.3892 17.5752H15.9424V21.022H19.3892V17.5752Z" fill="#FFBA00"/>
<path d="M15.272 17.5757H11.8252V21.0225H15.272V17.5757Z" fill="#00A2F2"/>
</svg>
